HIERARCHY
ROOT Hips
{
	OFFSET 0.000000 0.000000 0.000000 
	CHANNELS 6 Xposition Yposition Zposition Yrotation Xrotation Zrotation
	JOINT Spine
	{
		OFFSET 0.000000 0.072080 0.012321 
		CHANNELS 3 Xrotation Yrotation Zrotation
		JOINT Spine1
		{
			OFFSET 0.000000 0.126984 -0.001294 
			CHANNELS 3 Xrotation Yrotation Zrotation
			JOINT Spine2
			{
				OFFSET 0.000000 0.106559 -0.010096 
				CHANNELS 3 Xrotation Yrotation Zrotation
				JOINT Neck
				{
					OFFSET 0.000000 0.108417 -0.034017 
					CHANNELS 3 Xrotation Yrotation Zrotation
					JOINT Neck1
					{
						OFFSET 0.000000 0.033906 0.007241 
						CHANNELS 3 Xrotation Yrotation Zrotation
						JOINT Head
						{
							OFFSET 0.000000 0.031458 0.006707 
							CHANNELS 3 Xrotation Yrotation Zrotation
							End Site
							{
								OFFSET 0.000000 0.179920 0.000962 
							}
						}
					}
				}
				JOINT LeftShoulder
				{
					OFFSET 0.048002 0.079586 -0.029634 
					CHANNELS 3 Zrotation Xrotation Yrotation
					JOINT LeftArm
					{
						OFFSET 0.096243 -0.008695 -0.014012 
						CHANNELS 3 Zrotation Xrotation Yrotation
						JOINT LeftForeArm
						{
							OFFSET 0.216305 0.000000 0.000000 
							CHANNELS 3 Xrotation Zrotation Yrotation
							JOINT LeftHand
							{
								OFFSET 0.217764 0.000000 0.000000 
								CHANNELS 3 Zrotation Yrotation Xrotation
								JOINT LeftHandThumb1
								{
									OFFSET 0.018582 -0.007835 0.020476 
									CHANNELS 3 Zrotation Xrotation Yrotation
									JOINT LeftHandThumb2
									{
										OFFSET 0.026269 -0.007835 0.022186 
										CHANNELS 3 Zrotation Xrotation Yrotation
										JOINT LeftHandThumb3
										{
											OFFSET 0.035170 -0.010504 0.017018 
											CHANNELS 3 Zrotation Xrotation Yrotation
											End Site
											{
												OFFSET 0.020312 -0.007813 0.007813 
											}
										}
									}
								}
								JOINT LeftHandMiddle1
								{
									OFFSET 0.081749 0.004803 0.003358 
									CHANNELS 3 Zrotation Xrotation Yrotation
									JOINT LeftHandMiddle2
									{
										OFFSET 0.045251 0.000000 0.000000 
										CHANNELS 3 Zrotation Xrotation Yrotation
										JOINT LeftHandMiddle3
										{
											OFFSET 0.029009 0.000000 0.000000 
											CHANNELS 3 Zrotation Xrotation Yrotation
											End Site
											{
												OFFSET 0.017969 0.000000 0.000000 
											}
										}
									}
								}
								JOINT LeftHandIndex1
								{
									OFFSET 0.081207 0.004803 0.021137 
									CHANNELS 3 Zrotation Xrotation Yrotation
									JOINT LeftHandIndex2
									{
										OFFSET 0.043354 0.000000 0.000000 
										CHANNELS 3 Zrotation Xrotation Yrotation
										JOINT LeftHandIndex3
										{
											OFFSET 0.026493 0.000000 0.000000 
											CHANNELS 3 Zrotation Xrotation Yrotation
											End Site
											{
												OFFSET 0.019531 0.000000 0.000000 
											}
										}
									}
								}
								JOINT LeftHandRing1
								{
									OFFSET 0.080666 0.002509 -0.014652 
									CHANNELS 3 Zrotation Xrotation Yrotation
									JOINT LeftHandRing2
									{
										OFFSET 0.042541 0.000000 0.000000 
										CHANNELS 3 Zrotation Xrotation Yrotation
										JOINT LeftHandRing3
										{
											OFFSET 0.029009 0.000000 0.000000 
											CHANNELS 3 Zrotation Xrotation Yrotation
											End Site
											{
												OFFSET 0.015625 0.000000 0.000000 
											}
										}
									}
								}
								JOINT LeftHandPinky1
								{
									OFFSET 0.078227 -0.000612 -0.030993 
									CHANNELS 3 Zrotation Xrotation Yrotation
									JOINT LeftHandPinky2
									{
										OFFSET 0.028721 0.000000 0.000000 
										CHANNELS 3 Zrotation Xrotation Yrotation
										JOINT LeftHandPinky3
										{
											OFFSET 0.021963 0.000000 0.000000 
											CHANNELS 3 Zrotation Xrotation Yrotation
											End Site
											{
												OFFSET 0.022656 0.000000 0.000000 
											}
										}
									}
								}
							}
						}
					}
				}
				JOINT RightShoulder
				{
					OFFSET -0.047970 0.079586 -0.029634 
					CHANNELS 3 Zrotation Xrotation Yrotation
					JOINT RightArm
					{
						OFFSET -0.096274 -0.008695 -0.014012 
						CHANNELS 3 Zrotation Xrotation Yrotation
						JOINT RightForeArm
						{
							OFFSET -0.216305 0.000000 0.000000 
							CHANNELS 3 Xrotation Zrotation Yrotation
							JOINT RightHand
							{
								OFFSET -0.217764 0.000000 0.000000 
								CHANNELS 3 Zrotation Yrotation Xrotation
								JOINT RightHandThumb1
								{
									OFFSET -0.019670 -0.007318 0.019638 
									CHANNELS 3 Zrotation Xrotation Yrotation
									JOINT RightHandThumb2
									{
										OFFSET -0.025498 -0.008492 0.023179 
										CHANNELS 3 Zrotation Xrotation Yrotation
										JOINT RightHandThumb3
										{
											OFFSET -0.034504 -0.010705 0.016680 
											CHANNELS 3 Zrotation Xrotation Yrotation
											End Site
											{
												OFFSET -0.020312 -0.007813 0.007813 
											}
										}
									}
								}
								JOINT RightHandIndex1
								{
									OFFSET -0.081770 0.003825 0.021187 
									CHANNELS 3 Zrotation Xrotation Yrotation
									JOINT RightHandIndex2
									{
										OFFSET -0.042006 0.000000 0.000000 
										CHANNELS 3 Zrotation Xrotation Yrotation
										JOINT RightHandIndex3
										{
											OFFSET -0.026449 0.000000 0.000000 
											CHANNELS 3 Zrotation Xrotation Yrotation
											End Site
											{
												OFFSET -0.020312 0.000000 0.000000 
											}
										}
									}
								}
								JOINT RightHandMiddle1
								{
									OFFSET -0.084059 0.003825 0.003342 
									CHANNELS 3 Zrotation Xrotation Yrotation
									JOINT RightHandMiddle2
									{
										OFFSET -0.043881 0.000000 0.000000 
										CHANNELS 3 Zrotation Xrotation Yrotation
										JOINT RightHandMiddle3
										{
											OFFSET -0.029191 0.000000 0.000000 
											CHANNELS 3 Zrotation Xrotation Yrotation
											End Site
											{
												OFFSET -0.017969 0.000000 0.000000 
											}
										}
									}
								}
								JOINT RightHandRing1
								{
									OFFSET -0.081798 0.003030 -0.015127 
									CHANNELS 3 Zrotation Xrotation Yrotation
									JOINT RightHandRing2
									{
										OFFSET -0.042198 0.000000 0.000000 
										CHANNELS 3 Zrotation Xrotation Yrotation
										JOINT RightHandRing3
										{
											OFFSET -0.026497 0.000000 0.000000 
											CHANNELS 3 Zrotation Xrotation Yrotation
											End Site
											{
												OFFSET -0.017188 0.000000 0.000000 
											}
										}
									}
								}
								JOINT RightHandPinky1
								{
									OFFSET -0.077902 -0.000930 -0.030891 
									CHANNELS 3 Zrotation Xrotation Yrotation
									JOINT RightHandPinky2
									{
										OFFSET -0.028538 0.000000 0.000000 
										CHANNELS 3 Zrotation Xrotation Yrotation
										JOINT RightHandPinky3
										{
											OFFSET -0.021734 0.000000 0.000000 
											CHANNELS 3 Zrotation Xrotation Yrotation
											End Site
											{
												OFFSET -0.022656 0.000000 0.000000 
											}
										}
									}
								}
							}
						}
					}
				}
			}
		}
	}
	JOINT LeftUpLeg
	{
		OFFSET 0.075264 -0.025573 0.000000 
		CHANNELS 3 Xrotation Yrotation Zrotation
		JOINT LeftLeg
		{
			OFFSET 0.000000 -0.326016 -0.013516 
			CHANNELS 3 Xrotation Yrotation Zrotation
			JOINT LeftFoot
			{
				OFFSET 0.000098 -0.306172 -0.006623 
				CHANNELS 3 Xrotation Yrotation Zrotation
				JOINT LeftToeBase
				{
					OFFSET -0.001432 -0.095259 0.064705 
					CHANNELS 3 Xrotation Yrotation Zrotation
					End Site
					{
						OFFSET 0.000000 0.000000 0.079438 
					}
				}
			}
		}
	}
	JOINT RightUpLeg
	{
		OFFSET -0.075264 -0.025573 0.000000 
		CHANNELS 3 Xrotation Yrotation Zrotation
		JOINT RightLeg
		{
			OFFSET 0.000000 -0.326016 -0.013516 
			CHANNELS 3 Xrotation Yrotation Zrotation
			JOINT RightFoot
			{
				OFFSET 0.000098 -0.306172 -0.006623 
				CHANNELS 3 Xrotation Yrotation Zrotation
				JOINT RightToeBase
				{
					OFFSET -0.001432 -0.095259 0.064705 
					CHANNELS 3 Xrotation Yrotation Zrotation
					End Site
					{
						OFFSET 0.000025 0.000000 0.079438 
					}
				}
			}
		}
	}
}
MOTION
Frames: 4
Frame Time: 0.033333
-0.000471 0.732356 -0.000062 86.720299 1.299700 -5.689600 4.889500 -11.417100 5.091600 1.947800 -16.732100 2.697900 1.778300 -16.701900 2.997800 3.510600 -5.310800 1.194600 -0.000000 0.000000 -0.000000 -10.757200 -37.995701 1.666300 -12.216100 5.940200 -21.465599 -60.391602 4.861300 -5.669500 0.000000 -0.000000 -21.914499 14.678400 -25.787701 16.193600 -5.003200 12.915000 8.137200 7.314900 -4.626400 7.001800 3.002400 -1.710600 8.603200 -26.957600 -1.392000 1.808400 -16.258101 -0.220400 0.748000 -10.512200 -0.012900 0.245300 -13.271500 -0.185700 -1.627500 -8.493400 -0.096700 0.767000 -9.477100 -0.017900 -0.226900 -35.862499 -1.969700 7.147900 -19.117500 0.083100 0.294300 -15.500500 0.198100 -0.036100 -41.963699 -2.982700 9.751700 -26.707899 -0.126100 -0.269600 -12.556400 -0.110800 0.813800 12.832600 3.673200 -2.930500 64.983803 15.131900 -2.741000 0.000000 0.000000 17.269300 16.608000 -16.065100 42.852798 4.772600 13.759200 -10.190700 -6.598800 -5.031600 -5.056600 -1.915200 -1.726900 -7.680800 14.007700 -0.241100 1.209000 8.475100 -0.109700 -0.944300 13.092700 -0.100800 0.965400 27.603001 -1.577800 -2.486800 16.237499 -0.268200 -1.084100 14.141600 -0.063600 -0.370300 36.381901 -2.262100 -7.979200 19.107500 0.016900 -0.687600 13.824800 0.065200 1.585300 42.407700 -3.358600 -10.680100 26.706100 -0.254300 -0.270200 13.929000 -0.312400 1.922900 -14.213400 4.964200 5.656800 66.465103 10.119000 5.424300 8.287600 5.582300 -5.624700 -2.663000 0.000000 -0.000000 -15.405500 -0.995600 14.428100 17.905899 -5.701000 -2.768900 -5.027400 -6.363200 -5.415800 -1.680400 -0.000000 -0.000000 
0.044331 0.741622 -0.001787 86.416397 1.365500 -4.696900 4.431500 -10.143600 3.932800 1.874200 -16.316500 2.502600 1.707700 -16.283600 2.801700 4.151700 -5.622200 1.409300 -0.000000 0.000000 -0.000000 -10.108100 -39.161201 2.232500 -12.909800 6.099500 -21.371599 -62.126900 -0.722300 -2.322900 -0.000000 0.000000 -14.326900 10.721300 -27.303699 21.358101 -5.004000 12.913600 8.130300 6.789600 -1.668600 8.676000 2.860200 -1.004400 3.344700 -20.337000 -1.079100 2.945400 -7.906400 -0.091800 0.793500 -1.477500 0.001800 0.271400 -10.710300 -0.364500 -1.085700 -4.061300 -0.036900 0.779600 -4.606800 -0.018900 -0.218800 -26.431700 -1.549500 7.606900 -9.286400 0.039500 0.314700 -3.629800 0.078100 -0.018700 -29.704399 -2.162000 11.178200 -13.014800 -0.067100 -0.214800 1.096900 0.001500 0.856500 12.714100 3.759700 -2.156800 62.752800 17.153299 3.614100 0.000000 0.000000 17.808901 12.903300 -11.154300 39.869999 2.987600 11.990500 -11.443700 -5.796700 -3.591000 -5.845100 -1.890800 -1.717200 -7.737600 12.256000 -0.246100 1.444500 6.629900 -0.079800 -0.911700 11.112500 -0.092800 1.002700 26.074699 -1.484900 -2.348900 14.256900 -0.227400 -1.056600 12.198500 -0.051900 -0.336600 34.613400 -2.157700 -7.964500 17.331900 0.020400 -0.655300 12.119800 0.055900 1.618600 40.566200 -3.102900 -10.794700 24.961800 -0.231600 -0.245000 12.194600 -0.290600 1.951100 -21.247700 2.881600 3.399400 66.419197 10.108800 4.884900 0.422800 5.628400 -3.273800 -0.964100 -0.000000 0.000000 -7.701100 -1.176000 13.154000 10.283500 -6.131900 -3.508100 -3.548500 -3.212600 -4.486600 -3.621700 0.000000 -0.000000 
0.089075 0.746642 -0.004059 85.615799 1.468900 -3.876700 4.150600 -8.685400 3.111700 1.852800 -15.841900 2.374100 1.688000 -15.805400 2.673600 4.561600 -5.915800 1.486100 -0.000000 0.000000 -0.000000 -10.413000 -40.023499 2.098500 -13.571100 6.231300 -21.130800 -62.856201 -6.550300 1.549100 -0.000000 -0.000000 -8.237600 8.342000 -28.035400 27.203800 -5.004200 12.912900 8.127400 6.447400 2.197300 9.086300 2.632700 -0.104800 -0.565000 -15.771600 -0.856500 3.948400 -2.415500 -0.004200 0.813000 4.744600 0.014200 0.287900 -8.702700 -0.439600 -0.564300 -1.171000 0.002600 0.785300 -1.345300 -0.019200 -0.213300 -19.889799 -1.234800 7.907400 -2.826200 0.012900 0.332000 4.563000 -0.001400 0.007700 -21.087200 -1.483800 12.033000 -3.945100 -0.021500 -0.186900 10.493700 0.083300 0.869900 11.641100 3.852200 -0.688800 59.658600 20.649599 9.191700 0.000000 0.000000 20.242901 10.981000 -7.151400 31.839600 2.765800 11.758400 -11.797100 -5.618500 -3.418900 -6.180700 -1.908200 -1.723900 -7.698200 9.503700 -0.245900 1.705300 4.116100 -0.040800 -0.865900 8.189200 -0.083400 1.058300 23.608299 -1.335600 -2.238200 11.430000 -0.170900 -1.014800 9.395100 -0.037100 -0.287300 31.993000 -2.004300 -7.992700 14.632800 0.023800 -0.606200 9.475100 0.039400 1.669800 38.127602 -2.743100 -10.755200 22.324800 -0.198700 -0.205700 9.578400 -0.259500 1.994800 -27.589100 1.517800 1.925500 63.873299 10.096700 4.413700 -5.214800 5.117000 -1.941300 0.384200 -0.000000 -0.000000 -1.581800 -2.217700 11.589300 5.505300 -4.962300 -3.511200 -1.600000 -1.110600 -3.672800 -6.426300 -0.000000 -0.000000 
0.134280 0.746901 -0.006716 84.266800 1.753400 -3.209000 3.914000 -7.094600 2.620300 1.809000 -15.334700 2.300700 1.643800 -15.294300 2.601200 4.714700 -6.161400 1.349500 -0.000000 0.000000 -0.000000 -11.460200 -40.506302 1.262200 -14.157000 6.305600 -20.629101 -62.713799 -12.039700 6.191200 -0.000000 0.000000 -4.255600 7.240500 -26.739700 32.362400 -5.002500 12.915800 8.141700 6.903000 4.830700 8.135600 2.530800 0.471100 -2.392200 -12.428800 -0.689600 4.688200 -0.084100 0.033500 0.818200 7.618100 0.020500 0.295100 -5.734300 -0.342100 -0.275600 -0.080400 0.017600 0.782300 0.029300 -0.019200 -0.211000 -15.790500 -1.034500 8.170100 -0.091100 0.002300 0.340200 8.356400 -0.036800 0.023600 -16.037201 -1.094400 12.311800 -0.124000 -0.001100 -0.177400 14.730200 0.120600 0.871500 9.780500 3.912800 1.221600 55.682999 24.409000 14.343000 -0.000000 0.000000 23.986500 10.257600 -4.191400 21.268000 3.775700 12.756400 -11.046100 -5.893100 -4.341700 -6.278700 -1.970000 -1.748300 -7.556400 6.668900 -0.238900 1.988900 1.750000 -0.006000 -0.821200 4.953500 -0.076200 1.120300 21.020300 -1.178700 -2.128700 8.398200 -0.112600 -0.966900 6.339400 -0.023600 -0.232900 29.175501 -1.835400 -7.972800 11.590300 0.024900 -0.550600 6.415100 0.017400 1.727900 35.610802 -2.380500 -10.521300 19.185801 -0.162000 -0.157000 6.474000 -0.225200 2.048500 -32.917801 0.975800 1.340600 57.669498 10.082700 3.965200 -8.239500 3.965900 -1.280600 1.088400 0.000000 -0.000000 2.719000 -4.267400 9.548500 5.255500 -1.942300 -2.623000 -2.081900 -0.115700 -3.090700 -8.723400 -0.000000 -0.000000 
